HIERARCHY
ROOT Hips
{
	OFFSET 61.455898 -7.052236 95.540703
	CHANNELS 6 Xposition Yposition Zposition Xrotation Yrotation Zrotation
	JOINT spine
	{
		OFFSET 0.000000 -0.458068 7.965683
		CHANNELS 3 Xrotation Yrotation Zrotation
		JOINT spine1
		{
			OFFSET 0.000000 -0.000002 10.243103
			CHANNELS 3 Xrotation Yrotation Zrotation
			JOINT spine2
			{
				OFFSET 0.000000 -0.000001 9.814751
				CHANNELS 3 Xrotation Yrotation Zrotation
				JOINT Neck
				{
					OFFSET 0.000000 -1.201384 25.198608
					CHANNELS 3 Xrotation Yrotation Zrotation
					JOINT Head
					{
						OFFSET 0.000000 -0.000002 7.613144
						CHANNELS 3 Xrotation Yrotation Zrotation
						End Site
						{
							OFFSET 0.000000 6.077328 18.428101
						}
					}
				}
				JOINT RightShoulder
				{
					OFFSET -4.132702 0.575449 10.599197
					CHANNELS 3 Xrotation Yrotation Zrotation
					JOINT RightArm
					{
						OFFSET 0.000000 -0.000002 13.901794
						CHANNELS 3 Xrotation Yrotation Zrotation
						JOINT RightArmRoll
						{
							OFFSET 0.000000 -0.000001 7.017883
							CHANNELS 3 Xrotation Yrotation Zrotation
							JOINT RightForeArm
							{
								OFFSET 0.000000 -0.000003 20.440598
								CHANNELS 3 Xrotation Yrotation Zrotation
								JOINT RightForeArmRoll
								{
									OFFSET 0.000000 -0.000001 7.875153
									CHANNELS 3 Xrotation Yrotation Zrotation
									JOINT RightHand
									{
										OFFSET 0.000000 -0.000002 15.803696
										CHANNELS 3 Xrotation Yrotation Zrotation
										End Site
										{
											OFFSET 0.000000 0.000000 0.100006
										}
									}
								}
							}
						}
					}
				}
				JOINT LeftShoulder
				{
					OFFSET 4.132702 0.575449 10.599197
					CHANNELS 3 Xrotation Yrotation Zrotation
					JOINT LeftArm
					{
						OFFSET 0.000000 -0.000002 13.901794
						CHANNELS 3 Xrotation Yrotation Zrotation
						JOINT LeftArmRoll
						{
							OFFSET 0.000000 -0.000001 7.017883
							CHANNELS 3 Xrotation Yrotation Zrotation
							JOINT LeftForeArm
							{
								OFFSET 0.000000 -0.000003 20.440598
								CHANNELS 3 Xrotation Yrotation Zrotation
								JOINT LeftForeArmRoll
								{
									OFFSET 0.000000 -0.000001 7.875153
									CHANNELS 3 Xrotation Yrotation Zrotation
									JOINT LeftHand
									{
										OFFSET 0.000000 -0.000002 15.803696
										CHANNELS 3 Xrotation Yrotation Zrotation
										End Site
										{
											OFFSET 0.000000 0.000000 0.100006
										}
									}
								}
							}
						}
					}
				}
			}
		}
	}
	JOINT RightUpLeg
	{
		OFFSET -7.060482 1.086091 -1.294701
		CHANNELS 3 Xrotation Yrotation Zrotation
		JOINT RightUpLegRoll
		{
			OFFSET 0.000000 -0.000003 18.530800
			CHANNELS 3 Xrotation Yrotation Zrotation
			JOINT RightLeg
			{
				OFFSET 0.000000 0.000004 -22.947601
				CHANNELS 3 Xrotation Yrotation Zrotation
				JOINT RightLegRoll
				{
					OFFSET 0.000000 -0.000004 23.022598
					CHANNELS 3 Xrotation Yrotation Zrotation
					JOINT RightFoot
					{
						OFFSET 0.000000 -0.000003 19.162498
						CHANNELS 3 Xrotation Yrotation Zrotation
						JOINT RightToeBase
						{
							OFFSET 0.000000 -0.000003 16.018799
							CHANNELS 3 Xrotation Yrotation Zrotation
							End Site
							{
								OFFSET 0.006790 0.894205 7.757828
							}
						}
					}
				}
			}
		}
	}
	JOINT LeftUpLeg
	{
		OFFSET 7.060482 1.086091 -1.294701
		CHANNELS 3 Xrotation Yrotation Zrotation
		JOINT LeftUpLegRoll
		{
			OFFSET 0.000000 -0.000003 18.530899
			CHANNELS 3 Xrotation Yrotation Zrotation
			JOINT LeftLeg
			{
				OFFSET 0.000000 -0.000003 22.947495
				CHANNELS 3 Xrotation Yrotation Zrotation
				JOINT LeftLegRoll
				{
					OFFSET 0.000000 -0.000004 23.235504
					CHANNELS 3 Xrotation Yrotation Zrotation
					JOINT LeftFoot
					{
						OFFSET 0.000000 -0.000003 18.949600
						CHANNELS 3 Xrotation Yrotation Zrotation
						JOINT LeftToeBase
						{
							OFFSET 0.000000 -0.000002 16.018799
							CHANNELS 3 Xrotation Yrotation Zrotation
							End Site
							{
								OFFSET -0.030426 0.894205 7.757828
							}
						}
					}
				}
			}
		}
	}
}
MOTION
Frames: 9
Frame Time: 0.041667
65.532997 -7.551563 95.171188 0.896757 -3.724935 80.408668 0.414378 0.558242 0.788828 4.823665 1.132685 1.567122 6.468642 1.151375 1.553445 -30.596027 37.521552 12.471802 30.461240 -31.651452 7.621059 3.150372 -31.057697 8.455358 -68.630916 -178.996923 -66.934952 0.000003 0.000001 0.000001 19.430193 4.993509 -2.391980 0.000006 0.000012 -3.000001 -4.999954 -8.000173 0.000066 -61.579804 63.561945 70.862639 -98.381020 107.190188 108.376073 -0.000002 -0.000008 0.000009 60.172997 10.438578 -2.591310 0.000019 -0.000006 3.000010 -4.999876 7.999594 -0.000025 12.013616 -180.692518 2.933118 -179.999991 0.000005 -1.401004 171.722198 -1.231048 -0.470092 -0.000001 -0.000003 0.350033 73.991904 7.360764 0.352217 33.353272 -7.285864 1.003564 -13.494317 177.767312 3.714104 -0.000002 -0.000005 -0.983375 -16.677300 -1.424324 0.303632 -0.000001 0.000001 -0.233600 69.467224 -6.891859 -2.123545 25.456846 7.347336 0.000010 
65.554703 -7.521139 95.198784 0.923504 -3.750386 80.431208 0.418729 0.554549 0.784876 4.832356 1.125865 1.559155 6.477339 1.144469 1.545572 -30.446982 37.547479 12.474757 30.351018 -31.623591 7.625179 3.356403 -31.347881 8.673395 -68.410464 -178.572659 -67.080538 0.000000 -0.000001 0.000003 19.664651 4.576005 -2.354870 0.000006 0.000009 -3.000001 -4.999956 -8.000172 0.000062 -61.578773 63.441645 70.890588 -98.135987 107.156338 108.210735 -0.000002 -0.000008 0.000009 59.957532 10.523789 -2.636687 0.000025 -0.000006 3.000010 -4.999874 7.999594 -0.000024 12.022732 -180.659241 2.967918 -179.999991 0.000005 -1.401999 171.690725 -1.243804 -0.470636 -0.000004 -0.000002 0.352093 74.023200 7.361075 0.347207 33.341944 -7.285963 1.002224 -13.453631 177.794168 3.715838 -0.000002 -0.000005 -0.983440 -16.637779 -1.410342 0.305467 -0.000001 0.000001 -0.234768 69.482019 -6.891794 -2.123413 25.456848 7.347337 0.000009 
65.547699 -7.525780 95.201790 0.950828 -3.775712 80.455619 0.423008 0.550989 0.781056 4.840925 1.119314 1.551470 6.485903 1.137813 1.537965 -30.295516 37.568960 12.475803 30.238914 -31.585021 7.625575 3.559844 -31.628270 8.889480 -68.192527 -178.149693 -67.227332 0.000000 0.000002 0.000000 19.877042 4.159128 -2.313727 0.000006 0.000013 -2.999994 -4.999954 -8.000170 0.000064 -61.574292 63.325177 70.913886 -97.896767 107.125732 108.050055 -0.000002 -0.000008 0.000008 59.739211 10.610263 -2.682166 0.000019 -0.000005 3.000011 -4.999882 7.999595 -0.000026 12.032250 -180.625937 3.002877 -179.999991 0.000005 -1.402998 171.659579 -1.256573 -0.471203 -0.000004 -0.000002 0.354154 74.054851 7.361469 0.341988 33.330521 -7.286050 1.000869 -13.413936 177.822991 3.718816 -0.000003 -0.000005 -0.983493 -16.598673 -1.397116 0.307152 -0.000001 0.000001 -0.235886 69.495857 -6.891753 -2.123347 25.456849 7.347336 0.000010 
65.546600 -7.529402 95.169083 0.978505 -3.800659 80.481963 0.427185 0.547479 0.777400 4.849307 1.112823 1.544135 6.494281 1.131246 1.530714 -30.142137 37.586452 12.475145 30.125372 -31.536080 7.622381 3.759445 -31.897803 9.102284 -67.974794 -177.730702 -67.372419 0.000001 0.000001 -0.000000 20.064878 3.744770 -2.268449 0.000006 0.000010 -2.999999 -4.999956 -8.000172 0.000066 -61.567018 63.212923 70.933024 -97.664178 107.097462 107.894743 -0.000002 -0.000007 0.000009 59.519020 10.697826 -2.727782 0.000019 -0.000005 3.000009 -4.999871 7.999594 -0.000025 12.042378 -180.592674 3.037570 -179.999991 0.000005 -1.403995 171.629431 -1.270328 -0.471908 -0.000001 -0.000003 0.356192 74.086447 7.361912 0.336579 33.319094 -7.286143 0.999528 -13.375449 177.851829 3.723501 -0.000004 -0.000005 -0.983531 -16.560472 -1.384865 0.308659 -0.000001 0.000000 -0.236940 69.508841 -6.891672 -2.123322 25.456846 7.347337 0.000009 
65.508209 -7.525675 95.172592 1.006304 -3.824993 80.510431 0.431221 0.543938 0.773949 4.857447 1.106233 1.537246 6.502427 1.124570 1.523911 -29.987491 37.600427 12.473121 30.010420 -31.477323 7.615581 3.953959 -32.155943 9.310471 -67.754295 -177.318268 -67.512766 0.000002 0.000001 -0.000001 20.225442 3.334825 -2.219001 0.000007 0.000014 -2.999997 -4.999955 -8.000176 0.000066 -61.556964 63.105586 70.947886 -97.439704 107.070845 107.746159 -0.000002 -0.000007 0.000009 59.298446 10.786009 -2.773293 0.000018 -0.000005 3.000011 -4.999875 7.999594 -0.000023 12.053108 -180.560381 3.071340 -179.999991 0.000005 -1.405006 171.601017 -1.283088 -0.473424 -0.000003 -0.000003 0.358171 74.117436 7.362480 0.331026 33.307776 -7.286249 0.998215 -13.338752 177.882646 3.729405 -0.000003 -0.000004 -0.983547 -16.523378 -1.373808 0.309977 -0.000001 0.000001 -0.237912 69.520882 -6.891613 -2.123164 25.456844 7.347337 0.000009 
65.518707 -7.514548 95.170692 1.034004 -3.848462 80.540908 0.435092 0.540287 0.770735 4.865298 1.099375 1.530878 6.510283 1.117628 1.517617 -29.831695 37.611133 12.469613 29.894416 -31.408997 7.605228 4.142109 -32.401666 9.512640 -67.528489 -176.915027 -67.645422 -0.000001 -0.000000 0.000001 20.356411 2.931189 -2.165476 0.000006 0.000011 -2.999997 -4.999955 -8.000172 0.000064 -61.544403 63.003714 70.958589 -97.224792 107.045108 107.605683 -0.000002 -0.000005 0.000008 59.078384 10.874712 -2.818718 0.000022 -0.000005 3.000010 -4.999879 7.999594 -0.000024 12.064744 -180.529058 3.103773 -179.999991 0.000005 -1.406003 171.574939 -1.294879 -0.473774 -0.000003 -0.000003 0.360069 74.147584 7.363111 0.325236 33.296663 -7.286363 0.996927 -13.304053 177.914461 3.736733 -0.000003 -0.000005 -0.983541 -16.487503 -1.364185 0.311082 -0.000001 0.000001 -0.238785 69.531981 -6.891548 -2.123061 25.456849 7.347336 0.000010 
65.535400 -7.523118 95.167091 1.061354 -3.870839 80.573454 0.438767 0.536444 0.767798 4.872807 1.092050 1.525106 6.517778 1.110249 1.511942 -29.675611 37.619207 12.465142 29.777542 -31.331662 7.591370 4.322645 -32.634436 9.707418 -67.294309 -176.523179 -67.768427 0.000000 -0.000000 0.000001 20.455023 2.535711 -2.107987 0.000005 0.000011 -2.999999 -4.999955 -8.000172 0.000065 -61.529568 62.907948 70.965358 -97.020829 107.019352 107.474461 -0.000002 -0.000006 0.000009 58.860303 10.963441 -2.863847 0.000021 -0.000005 3.000010 -4.999881 7.999594 -0.000025 12.077390 -180.499702 3.134232 -179.999991 0.000005 -1.406002 171.551908 -1.305679 -0.473916 -0.000003 -0.000003 0.361848 74.176189 7.363962 0.319078 33.285943 -7.286494 0.995710 -13.271656 177.946304 3.745705 -0.000002 -0.000005 -0.983504 -16.453236 -1.356216 0.311960 -0.000001 0.000001 -0.239544 69.542008 -6.891472 -2.123027 25.456849 7.347337 0.000010 
65.529297 -7.515710 95.169090 1.088150 -3.891870 80.608069 0.442206 0.532328 0.765172 4.879896 1.084107 1.520009 6.524872 1.102236 1.506949 -29.519357 37.624910 12.459596 29.659967 -31.245704 7.574010 4.494240 -32.853336 9.893350 -67.048818 -176.146235 -67.877074 0.000000 -0.000002 -0.000003 20.518797 2.150253 -2.046765 0.000006 0.000010 -2.999997 -4.999955 -8.000171 0.000060 -61.512731 62.818821 70.968199 -96.829509 106.992789 107.354256 -0.000002 -0.000008 0.000009 58.645070 11.051991 -2.908627 0.000023 -0.000005 3.000010 -4.999874 7.999596 -0.000025 12.091241 -180.473269 3.162078 -179.999991 0.000005 -1.407001 171.532619 -1.315504 -0.474814 -0.000002 -0.000003 0.363482 74.203086 7.364923 0.312649 33.275739 -7.286629 0.994555 -13.242071 177.978173 3.756301 -0.000001 -0.000004 -0.983439 -16.420881 -1.350121 0.312595 -0.000001 0.000001 -0.240174 69.550874 -6.891416 -2.122864 25.456851 7.347337 0.000010 
65.527802 -7.516175 95.158302 1.114145 -3.911312 80.644809 0.445386 0.527858 0.762895 4.886532 1.075348 1.515690 6.531504 1.093428 1.502738 -29.363735 37.628813 12.453415 29.542013 -31.151530 7.553224 4.655613 -33.057774 10.069002 -66.789162 -175.786133 -67.970341 -0.000001 -0.000003 -0.000002 20.545023 1.776638 -1.982046 0.000007 0.000009 -3.000001 -4.999957 -8.000172 0.000065 -61.494099 62.736995 70.967318 -96.651521 106.964703 107.245445 -0.000002 -0.000008 0.000009 58.434188 11.139908 -2.952953 0.000024 -0.000006 3.000011 -4.999880 7.999594 -0.000026 12.106401 -180.448803 3.187095 -179.999991 0.000005 -1.407000 171.517716 -1.324358 -0.475487 -0.000001 -0.000003 0.364942 74.227538 7.366096 0.306008 33.266249 -7.286785 0.993515 -13.215482 178.011054 3.768264 -0.000002 -0.000005 -0.983332 -16.390545 -1.346129 0.312971 -0.000001 0.000001 -0.240657 69.558585 -6.891379 -2.122780 25.456848 7.347337 0.000009 
